<svg id="cybersource-logo" xmlns="http://www.w3.org/2000/svg" width="400" height="100" viewBox="0 0 400 100">
  <title>CyberSource | A Visa Solution</title>
  <g id="cybersource" fill="#1a1f71">
    <path id="c-01" d="M32,45.47l4.34-8.68h2.46l-.91,10.34a45.89,45.89,0,0,1-14.46,2.43c-8.54,0-13.47-1.74-17.49-6.17A23.33,23.33,0,0,1,.15,27.14c0-11.57,6-21,15.41-23.87a31,31,0,0,1,9.93-1.45A51,51,0,0,1,38.26,3.47V14h-2.5L32.5,5.28a39.09,39.09,0,0,0-5.62-.35C14.1,4.93,7.09,12.49,7.09,26.09c0,9.3,3.81,16.25,10.28,18.48A24.08,24.08,0,0,0,26,45.81c1.81,0,2.89-.07,5.28-.27Z"/>
    <path id="y-02" d="M57.56,48.79l-12-29.49-4.23-1.88V15.69h15.9v1.73L52.42,19.3l6.32,16.24.9,2.42a34.38,34.38,0,0,1,1.23,4l8.05-22.14-4.66-2.37V15.69H77.35v1.73l-4,2.37L58.93,55.38c-2.57,6.26-5.91,8.68-12.09,8.68a27.29,27.29,0,0,1-4.33-.35V57.13h4.23l2.08,4.24c2.9-.42,4.59-2.23,6.47-6.81Z"/>
    <path id="b-03" d="M88.65,20.54a14.53,14.53,0,0,1,5.79-1c6.73,0,11,5.06,11,13,0,8.89-4.64,13.61-13.39,13.61a17.4,17.4,0,0,1-2.79-.22,4,4,0,0,1-.69,0ZM86.37,48.79a36.35,36.35,0,0,0,6.66.77,18.64,18.64,0,0,0,19.1-18.16c0-.29,0-.57,0-.85,0-8.76-5.62-15.56-12.85-15.56-2.21,0-6.1,1.45-10.63,4V0L76.23,2.78V4.34L82.41,6.1V47.9A18.46,18.46,0,0,0,86.37,48.79Z"/>
    <path id="e-04" d="M124.55,29.07c.62-7.5,3.33-11.17,8.26-11.17,4.51,0,6.46,2.89,6.59,9.77Zm21-5.49c-1.45-5.08-6.26-8.47-12.16-8.47-9.15,0-15.91,7.63-15.91,17.91,0,9.71,6.18,16.32,15.27,16.32a42.93,42.93,0,0,0,13-2.79l-.35-2.21a56.09,56.09,0,0,1-8,.84,13.53,13.53,0,0,1-8.81-2.79c-2.9-2.49-4.1-5.68-4.17-11.38h21.88a32,32,0,0,0-.78-7.43Z"/>
    <path id="r-05" d="M152.16,48.86V47.13L158,44.7V20.89l-5.79-1.66V17.62l12.09-2.77v4.33l.62-.34c4.58-2.37,7.71-3.54,9.66-3.54a6.56,6.56,0,0,1,3.54,1V24h-4.8l-2.08-4.09h-1.74a15.68,15.68,0,0,0-5.2,1V44.7l7.23,2.43v1.73Z"/>
    <path id="s-06" d="M184.39,47V36.87h2.48l3.42,8.6a30.52,30.52,0,0,0,5.06.34c6.46,0,9.86-2.57,9.86-7.41,0-3.41-1.12-5-6-8.13l-6.8-4.33c-3.61-2.29-4.87-3.4-6.11-5.48a10,10,0,0,1-1.6-5.9c0-7.23,5.34-12.23,13.26-12.23,1.17,0,3.25.21,5.21.42,1.59.21,2.77.42,3.67.63l2.89.62,1,.21V14h-2.56l-3.38-8.33-.55-.07c-1.81-.14-2.23-.22-3.48-.22-6.94,0-10.27,2.17-10.27,6.76,0,3.18,1,4.56,5.9,7.61l7.23,4.66c4.45,2.89,5.07,3.27,6.32,5.2a12.1,12.1,0,0,1,2.08,7c0,7.7-5.79,12.63-14.79,12.63a40.89,40.89,0,0,1-8.39-1.11L185,47.2Z"/>
    <path id="o-07" d="M233.38,18.11c6.12,0,9.66,5.63,9.66,15.27,0,8.47-3.33,13.4-9,13.4-6,0-9.66-5.48-9.66-14.77C224.36,23.13,227.7,18.11,233.38,18.11Zm-.27,31.81c9.8,0,16.8-7.63,16.8-18.11,0-10-6.38-16.8-15.82-16.8-9.93,0-16.6,7.22-16.6,18,0,9.92,6.47,16.86,15.62,16.86Z"/>
    <path id="u-08" d="M279.56,49.85V45.74l-.7.29-3.47,1.45a22.88,22.88,0,0,1-7.92,2.08c-5.48,0-9-4.16-9-10.69V20.69L252.62,19V17.42l12.09-2.7V37.41c0,5.63,2.16,7.64,8,7.64a31.64,31.64,0,0,0,6.86-.7V20.69L273.79,19V17.42l12.09-2.7V43.8l5.49,1.74V47Z"/>
    <path id="r-09" d="M295.46,48.86V47.13l5.78-2.43V20.89l-5.78-1.66V17.62l12.07-2.77v4.33l.62-.34c4.59-2.37,7.71-3.54,9.66-3.54a6.51,6.51,0,0,1,3.54,1V24h-4.8l-2.08-4.09h-1.73a15.79,15.79,0,0,0-5.21,1V44.7l7.23,2.43v1.73Z"/>
    <path id="c-10" d="M351.21,16.86V24H347l-3.05-6.17a11.57,11.57,0,0,0-1.44-.07c-6.8,0-12,6-12,14a14.84,14.84,0,0,0,3.32,9.86c2.36,2.7,5.21,3.82,9.73,3.82a32.44,32.44,0,0,0,6.8-.7l.69-.14.42,2.23-.7.2-3.54,1a29.58,29.58,0,0,1-8.6,1.44c-8.67,0-14.66-6.73-14.66-16.23,0-10.77,7.5-18,18.68-18A28.61,28.61,0,0,1,351.21,16.86Z"/>
    <path id="e-11" d="M362.17,29.29c.63-7.5,3.34-11.18,8.27-11.18,4.49,0,6.44,2.9,6.59,9.79Zm21.09-5.48c-1.45-5.07-6.25-8.47-12.15-8.47-9.16,0-15.9,7.63-15.9,17.91,0,9.72,6.19,16.31,15.28,16.31a42.92,42.92,0,0,0,13-2.78l-.36-2.21a57.44,57.44,0,0,1-8,.83,13.47,13.47,0,0,1-8.82-2.78c-2.89-2.5-4.11-5.7-4.18-11.38h21.87A31,31,0,0,0,383.26,23.81Z"/>
    <path id="registered-trademark" d="M393,14.23v-1.9h1.29c.63,0,1.44.09,1.44.87s-.72,1-1.52,1Zm0,.92h1l1.67,2.78h1.22L395,15a1.69,1.69,0,0,0,1.71-1.65.57.57,0,0,0,0-.13c0-1.32-.81-1.88-2.37-1.88h-2.43v6.55H393Zm6.91-.59a5.79,5.79,0,1,0-5.78,5.78A5.78,5.78,0,0,0,399.87,14.56Zm-1.24,0a4.53,4.53,0,0,1-9,.51,4.34,4.34,0,0,1,0-.51,4.53,4.53,0,1,1,9-.51A4.34,4.34,0,0,1,398.63,14.56Z"/>
  </g>
  <g id="a-visa-solution" fill="#1a1f71">
    <path id="a-12" d="M163.93,91.66l-2.6,7.89H158l8.53-25.1h3.91L179,99.55h-3.47l-2.67-7.89Zm8.26-2.53-2.45-7.23c-.56-1.63-.94-3.12-1.31-4.58h0c-.38,1.44-.78,3-1.26,4.55l-2.46,7.23Z"/>
    <path id="v-13" d="M194.74,99.55l-8.2-25.1H190L194,86.81c1.08,3.4,2,6.45,2.67,9.39h.13c.71-2.89,1.75-6.07,2.89-9.34l4.24-12.41h3.47l-9,25.1Z"/>
    <path id="i-14" d="M213,76.46a2,2,0,0,1-4.06,0,2,2,0,0,1,1.92-2H211a2,2,0,0,1,2,1.87A1,1,0,0,1,213,76.46ZM209.3,99.59V81.52h3.28v18Z"/>
    <path id="s-15" d="M217.57,96.2a8.63,8.63,0,0,0,4.33,1.3c2.39,0,3.5-1.19,3.5-2.68s-.92-2.41-3.35-3.31c-3.24-1.15-4.76-2.89-4.76-5.1,0-2.89,2.34-5.29,6.22-5.29a9,9,0,0,1,4.42,1.11l-.81,2.39a6.86,6.86,0,0,0-3.68-1c-1.94,0-3,1.11-3,2.45s1.09,2.16,3.43,3c3.12,1.2,4.73,2.77,4.73,5.44,0,3.17-2.46,5.41-6.74,5.41a10.38,10.38,0,0,1-5.06-1.23Z"/>
    <path id="a-16" d="M242.75,99.55l-.26-2.27h-.12a6.71,6.71,0,0,1-5.5,2.68,5.13,5.13,0,0,1-5.5-4.72c0-.15,0-.31,0-.46,0-4.34,3.86-6.74,10.83-6.69v-.38A3.69,3.69,0,0,0,239,83.56a3.39,3.39,0,0,0-.9,0,9,9,0,0,0-4.7,1.33l-.74-2.16a11.17,11.17,0,0,1,5.91-1.6c5.51,0,6.86,3.76,6.86,7.37v6.74a24.31,24.31,0,0,0,.3,4.34Zm-.49-9.19c-3.57,0-7.63.56-7.63,4.06a2.88,2.88,0,0,0,2.64,3.12h.45a4.5,4.5,0,0,0,4.34-3,3.08,3.08,0,0,0,.18-1Z"/>
    <path id="s-17" d="M258.28,95.6a11.45,11.45,0,0,0,5.78,1.64c3.31,0,5.25-1.75,5.25-4.34s-1.35-3.69-4.73-5c-4.09-1.44-6.62-3.57-6.62-7.11,0-3.9,3.24-6.81,8.11-6.81a11.39,11.39,0,0,1,5.55,1.23l-.89,2.65a9.86,9.86,0,0,0-4.78-1.2c-3.42,0-4.72,2-4.72,3.75,0,2.36,1.53,3.5,5,4.85,4.25,1.63,6.41,3.68,6.41,7.37s-2.89,7.23-8.78,7.23a12.83,12.83,0,0,1-6.36-1.56Z"/>
    <path id="o-18" d="M293.51,90.39c0,6.67-4.61,9.57-9,9.57-4.87,0-8.67-3.58-8.67-9.27,0-6,3.94-9.57,8.93-9.57S293.51,84.88,293.51,90.39Zm-14.3.18c0,4,2.27,6.93,5.48,6.93s5.47-2.89,5.47-7c0-3-1.45-6.92-5.4-6.92s-5.59,3.57-5.59,7Z"/>
    <path id="l-19" d="M297.64,73.11h3.29V99.55h-3.29Z"/>
    <path id="u-20" d="M321.53,94.64c0,1.86,0,3.49.14,4.91h-2.89l-.19-2.89h0a6.79,6.79,0,0,1-5.95,3.34c-2.9,0-6.22-1.56-6.22-7.89V81.52h3.27v10c0,3.43,1.05,5.79,4,5.79a4.63,4.63,0,0,0,4.48-4.77h0v-11h3.28Z"/>
    <path id="t-21" d="M330.91,76.35v5.17h4.64V84h-4.7v9.72c0,2.24.64,3.5,2.46,3.5a7.28,7.28,0,0,0,1.91-.22l.14,2.46a8.36,8.36,0,0,1-2.89.45,4.59,4.59,0,0,1-3.54-1.45,6.73,6.73,0,0,1-1.26-4.7V84h-2.79V81.52h2.79V77.19Z"/>
    <path id="i-22" d="M342.94,76.46a2,2,0,1,1-4.05,0,2,2,0,0,1,1.92-2h.12a1.94,1.94,0,0,1,2,1.87Zm-3.65,23.13V81.52h3.29v18Z"/>
    <path id="o-23" d="M364.32,90.39c0,6.67-4.63,9.57-9,9.57-4.87,0-8.67-3.58-8.67-9.27,0-6,3.94-9.57,8.93-9.57S364.32,84.88,364.32,90.39Zm-14.3.18c0,4,2.27,6.93,5.47,6.93s5.48-2.89,5.48-7c0-3-1.54-6.92-5.4-6.92s-5.56,3.57-5.56,7Z"/>
    <path id="n-24" d="M368.45,86.41c0-1.87,0-3.4-.14-4.89h2.89l.19,3h.07a6.64,6.64,0,0,1,6-3.38c2.48,0,6.36,1.44,6.36,7.68V99.55h-3.27V89.16c0-2.89-1.08-5.32-4.18-5.32a4.67,4.67,0,0,0-4.34,3.35,5,5,0,0,0-.21,1.53V99.55h-3.28Z"/>
  </g>
</svg>